<svg xmlns="http://www.w3.org/2000/svg" viewBox="348 104 286 284">
<g transform="translate(0.000000,1182.000000) scale(0.100000,-0.100000)" fill="#A98845" stroke="none">
<path d="M4941 10728 c-41 -11 -129 -97 -156 -153 -14 -28 -20 -60 -20 -110 0
-79 9 -98 88 -182 55 -60 94 -138 103 -206 l7 -47 -36 0 c-32 0 -38 4 -53 38
-29 62 -130 152 -224 200 -136 70 -190 134 -190 228 0 50 7 54 40 20 71 -77
197 -4 169 98 -7 25 -21 44 -42 56 -66 41 -126 15 -174 -76 -60 -113 -60 -219
0 -298 15 -19 64 -56 108 -83 85 -50 138 -104 164 -166 21 -51 0 -53 -55 -4
-77 68 -152 99 -294 122 -144 23 -208 68 -236 165 -12 42 -8 47 22 26 12 -9
41 -16 64 -16 57 0 94 42 94 104 0 55 -31 86 -94 93 -41 5 -48 3 -75 -25 -34
-38 -51 -98 -51 -185 0 -132 72 -212 220 -243 90 -18 142 -42 198 -90 49 -41
52 -55 17 -78 -23 -15 -27 -15 -64 4 -74 37 -167 46 -294 28 -122 -18 -173
-14 -228 19 -30 17 -79 75 -79 93 0 4 22 5 50 2 44 -4 52 -2 80 26 49 50 40
126 -20 157 -65 33 -131 5 -150 -63 -14 -53 5 -155 39 -217 15 -27 47 -63 70
-80 43 -30 43 -30 189 -31 147 -1 201 -11 252 -47 18 -13 18 -14 -3 -39 -21
-25 -23 -26 -84 -15 -78 13 -177 -6 -291 -57 -133 -59 -209 -57 -280 9 l-37
34 37 1 c27 0 47 8 70 29 29 26 33 35 32 76 -1 36 -7 52 -26 72 -49 48 -145
28 -169 -35 -34 -87 72 -268 176 -302 51 -17 140 -8 201 20 57 26 202 39 247
21 45 -17 34 -37 -25 -44 -89 -11 -172 -60 -269 -158 -47 -48 -104 -96 -127
-108 -46 -23 -126 -28 -167 -9 -28 13 -33 28 -9 28 8 0 29 13 45 29 41 42 41
98 -2 140 -72 72 -191 7 -172 -94 9 -45 118 -148 178 -169 105 -35 177 -14
277 81 64 60 140 100 211 109 l47 7 0 -39 c0 -37 -3 -40 -45 -57 -57 -24 -140
-107 -185 -186 -83 -147 -97 -167 -135 -193 -41 -28 -119 -46 -151 -34 -14 5
-13 10 10 33 69 69 37 164 -60 180 -29 5 -38 1 -69 -30 -47 -47 -49 -100 -6
-146 42 -45 134 -84 206 -89 103 -7 169 34 235 148 45 77 124 153 177 171 53
17 60 -5 13 -47 -68 -61 -130 -210 -130 -310 0 -55 -23 -128 -55 -174 -25 -37
-96 -80 -130 -80 -14 0 -14 3 0 30 38 74 -8 160 -85 160 -83 0 -133 -112 -76
-173 30 -33 83 -47 174 -47 152 0 227 69 256 238 15 84 39 140 82 191 41 49
60 56 79 28 14 -22 13 -28 -11 -82 -36 -78 -43 -199 -19 -320 10 -53 14 -104
11 -130 -9 -54 -54 -125 -95 -149 l-33 -18 7 43 c7 56 -9 89 -55 111 -72 35
-145 -12 -145 -95 0 -32 7 -45 34 -69 33 -30 37 -30 107 -25 119 9 203 57 246
142 16 31 20 54 18 110 -8 183 -6 218 22 278 15 31 30 57 34 57 4 0 17 -9 29
-20 20 -18 21 -25 11 -70 -16 -81 5 -175 70 -313 53 -109 56 -121 52 -176 -6
-85 -78 -191 -78 -115 0 64 -60 112 -124 100 -97 -18 -104 -161 -10 -196 71
-27 229 62 273 153 34 69 29 143 -16 241 -34 73 -37 89 -38 168 0 101 8 116
56 102 30 -9 33 -14 45 -71 18 -87 57 -160 131 -244 79 -89 102 -136 103 -207
0 -45 -21 -112 -35 -112 -2 0 -12 16 -21 36 -18 37 -62 64 -103 64 -11 0 -36
-14 -56 -31 -28 -25 -35 -38 -35 -69 0 -39 26 -82 62 -101 39 -21 95 -1 159
59 132 122 141 240 28 377 -27 33 -58 84 -69 113 -20 54 -27 152 -11 152 5 0
23 -25 40 -56 47 -82 111 -137 231 -199 120 -61 172 -110 190 -175 6 -23 8
-55 5 -71 l-7 -30 -34 31 c-64 55 -149 29 -169 -53 -21 -83 84 -151 158 -102
47 30 107 163 107 234 0 88 -58 164 -170 226 -39 22 -87 56 -106 77 -34 38
-82 124 -73 132 2 2 18 7 34 10 26 6 37 1 75 -35 62 -59 168 -105 277 -123
112 -18 150 -34 195 -80 31 -32 67 -111 55 -122 -3 -3 -20 3 -40 12 -75 36
-147 -9 -147 -91 0 -72 76 -119 141 -87 53 27 73 72 77 178 4 86 2 96 -24 143
-34 63 -95 106 -172 121 -90 19 -139 39 -192 81 -59 46 -79 77 -59 90 15 10
18 9 99 -20 67 -25 178 -27 265 -6 126 30 211 12 273 -59 17 -20 32 -40 32
-45 0 -4 -22 -6 -50 -3 -44 4 -52 2 -80 -26 -57 -57 -31 -153 45 -168 100 -18
147 46 124 171 -23 123 -87 203 -182 226 -39 9 -68 9 -133 -1 -87 -13 -146 -6
-219 24 -40 17 -42 25 -17 56 16 20 21 21 62 10 81 -22 193 0 331 64 106 49
197 44 266 -17 l36 -32 -48 -7 c-61 -9 -86 -33 -92 -91 -5 -41 -2 -49 25 -77
40 -40 96 -42 141 -4 27 22 31 32 31 75 0 95 -70 208 -156 250 -38 18 -57 21
-112 16 -38 -3 -89 -15 -117 -28 -31 -13 -77 -24 -120 -27 -125 -8 -218 38
-104 51 93 11 171 57 275 161 52 52 111 102 131 111 46 22 129 23 168 2 l29
-15 -37 -16 c-27 -11 -42 -26 -53 -52 -19 -46 -12 -78 27 -117 26 -26 35 -29
72 -24 49 7 97 52 97 93 0 63 -78 155 -165 195 -50 23 -139 25 -190 3 -20 -8
-68 -44 -106 -80 -74 -70 -136 -102 -211 -111 l-48 -6 0 37 c0 33 4 38 44 57
89 41 159 119 219 243 59 122 126 176 220 176 26 0 47 -3 47 -6 0 -4 -13 -22
-30 -41 -34 -38 -38 -69 -14 -114 18 -35 73 -62 108 -53 43 10 81 60 81 106 0
35 -6 46 -44 79 -85 75 -225 103 -307 61 -51 -26 -87 -65 -118 -129 -33 -64
-97 -130 -158 -163 -38 -20 -50 -22 -60 -12 -10 10 -5 20 25 49 75 72 111 157
128 297 14 119 32 167 84 215 38 35 98 61 112 48 3 -3 -2 -16 -11 -29 -36 -50
-12 -118 51 -145 70 -29 136 20 135 101 -1 58 -39 90 -124 105 -84 14 -94 14
-156 -4 -98 -30 -155 -105 -173 -231 -12 -87 -35 -138 -91 -198 l-44 -49 -23
32 -23 32 25 57 c49 110 52 179 18 372 -16 92 6 168 63 218 48 42 60 41 52 -3
-9 -44 14 -89 54 -110 37 -19 54 -19 96 1 60 29 70 117 18 165 -22 20 -36 24
-87 23 -120 -1 -221 -53 -265 -134 -23 -43 -23 -50 -17 -180 6 -122 5 -140
-14 -191 -29 -78 -45 -97 -68 -83 -15 10 -17 22 -14 87 4 100 -11 160 -72 284
-54 113 -66 170 -47 229 14 44 47 94 61 94 5 0 9 -11 9 -25 0 -37 19 -70 50
-88 38 -23 71 -21 111 6 27 18 35 30 37 61 5 58 -5 85 -41 106 -41 25 -59 25
-129 -4 -79 -32 -134 -79 -165 -139 -36 -71 -30 -156 18 -247 32 -61 34 -71
34 -162 0 -53 -3 -99 -6 -102 -3 -4 -17 -2 -31 3 -20 8 -27 20 -36 67 -17 82
-71 171 -152 250 -111 109 -143 199 -104 292 l15 37 14 -31 c18 -43 61 -74
102 -74 26 0 43 8 69 34 37 37 41 59 20 110 -21 50 -66 69 -125 54z m72 -853
c240 -51 417 -269 417 -513 -1 -299 -258 -539 -556 -519 -280 19 -490 246
-487 527 3 258 183 466 441 510 72 12 111 11 185 -5z"/>
<path d="M4832 9800 c-180 -28 -338 -193 -361 -377 -37 -294 219 -545 505
-496 259 45 424 297 358 548 -57 220 -275 361 -502 325z"/>
</g>
</svg>
