<svg xmlns="http://www.w3.org/2000/svg" viewBox="118 835 896 164">
<g transform="translate(0.000000,1182.000000) scale(0.100000,-0.100000)" fill="#184153" stroke="none">
<path d="M5080 3424 c-76 -33 -117 -92 -126 -183 -17 -162 76 -272 231 -270
67 1 136 18 142 36 3 8 -9 7 -43 -3 -67 -20 -113 -17 -164 9 -67 34 -90 85
-90 201 1 146 39 206 131 206 50 0 79 -21 120 -86 11 -19 24 -34 29 -34 15 0
28 26 32 65 3 40 3 40 -47 57 -62 21 -168 22 -215 2z"/>
<path d="M6453 3433 c-37 -7 -73 -49 -73 -85 0 -55 33 -94 139 -162 115 -75
141 -100 141 -137 0 -36 -33 -59 -83 -59 -49 0 -71 12 -129 68 -41 39 -49 43
-63 32 -10 -9 -15 -25 -13 -48 3 -31 8 -37 43 -49 50 -18 161 -28 208 -19 20
4 50 18 67 32 25 21 30 33 30 69 0 59 -30 92 -145 160 -51 30 -103 67 -114 81
-45 57 -16 104 65 104 52 0 79 -14 127 -63 15 -16 33 -27 40 -24 14 4 34 73
24 83 -18 19 -197 30 -264 17z"/>
<path d="M3473 3415 l27 -16 0 -195 0 -194 -27 -12 -28 -12 33 -4 c17 -2 47
-2 65 0 l32 4 -27 12 -28 12 1 177 c0 120 3 171 10 158 5 -11 40 -96 77 -190
53 -132 72 -171 88 -173 16 -2 32 27 99 180 l80 183 3 -178 c2 -138 5 -179 16
-183 7 -3 35 -4 62 -2 48 3 48 4 22 16 l-28 12 0 194 0 195 28 15 c27 15 26
15 -29 16 l-56 0 -84 -191 c-63 -144 -85 -186 -91 -172 -5 10 -39 95 -76 188
l-68 170 -65 2 c-62 3 -63 2 -36 -12z"/>
<path d="M4187 3421 l32 -6 -70 -194 c-71 -198 -81 -221 -105 -221 -7 0 -16
-4 -19 -10 -4 -6 19 -10 62 -10 66 1 67 1 41 16 -32 17 -34 28 -13 78 18 42
32 47 139 43 l78 -3 19 -49 19 -50 -23 -17 c-21 -17 -20 -18 58 -18 77 0 79 1
59 18 -14 10 -44 76 -79 172 -31 85 -66 179 -77 208 l-19 52 -67 -1 c-48 -1
-58 -3 -35 -8z m91 -159 c23 -64 42 -120 42 -124 0 -9 -180 -11 -180 -2 0 13
85 244 90 244 3 0 24 -53 48 -118z"/>
<path d="M4533 3414 l27 -15 0 -194 0 -195 -32 -14 c-31 -14 -29 -14 62 -14
79 0 90 2 67 11 -33 13 -39 32 -35 112 3 59 4 60 34 63 28 3 36 -5 103 -93
l73 -95 49 0 49 0 -39 39 c-22 22 -47 51 -57 66 -9 14 -40 38 -68 53 l-51 26
50 11 c96 22 125 52 125 128 0 104 -44 127 -245 126 -130 0 -138 -1 -112 -15z
m246 -16 c46 -28 53 -141 11 -182 -17 -17 -33 -21 -93 -21 l-72 0 -3 89 c-2
50 0 101 3 114 6 24 8 25 70 19 35 -3 73 -12 84 -19z"/>
<path d="M5400 3425 c0 -3 11 -10 25 -15 l25 -10 0 -195 0 -195 -27 -12 c-28
-12 -28 -12 15 -16 23 -2 61 -2 85 0 42 4 42 4 15 16 -28 11 -28 13 -28 102
l0 90 125 0 125 0 0 -92 c0 -51 4 -99 9 -106 5 -9 25 -12 62 -10 52 3 53 4 27
15 l-28 13 0 194 0 195 28 15 c26 14 22 15 -63 15 -75 -1 -86 -3 -62 -12 27
-11 27 -11 27 -109 l0 -98 -125 0 -125 0 0 95 c0 93 0 95 28 109 26 15 23 15
-55 16 -46 0 -83 -2 -83 -5z"/>
<path d="M5953 3414 l27 -15 0 -195 0 -194 -25 -10 c-14 -5 -25 -12 -25 -15 0
-3 86 -5 190 -5 l190 0 0 50 c0 30 -4 50 -11 50 -6 0 -29 -18 -50 -40 l-39
-40 -80 0 -80 0 0 95 0 95 81 0 c81 0 81 0 92 -30 18 -48 27 -35 27 39 0 73
-13 101 -25 54 -9 -38 -20 -43 -102 -43 l-73 0 0 106 0 107 76 -6 c79 -6 116
-25 130 -69 6 -19 29 -25 38 -10 3 5 8 28 12 50 l7 42 -194 0 c-178 -1 -192
-2 -166 -16z"/>
<path d="M6803 3417 l27 -11 0 -198 0 -197 -27 -15 c-27 -14 -23 -15 62 -15
85 0 89 1 63 15 l-28 15 0 194 0 194 28 15 c26 14 22 15 -63 15 -75 -1 -86 -3
-62 -12z"/>
<path d="M7203 3417 l27 -11 0 -198 0 -197 -27 -15 c-26 -14 -17 -15 118 -16
85 0 160 5 180 12 94 31 133 93 133 213 1 97 -23 151 -86 192 -41 27 -44 28
-207 30 -131 1 -160 -1 -138 -10z m284 -19 c54 -27 68 -60 71 -177 6 -179 -27
-221 -175 -221 l-83 0 0 211 0 212 81 -6 c44 -4 92 -12 106 -19z"/>
<path d="M7713 3417 l27 -11 0 -201 0 -201 -27 -11 c-24 -9 -14 -11 60 -12 48
-1 87 1 87 4 0 3 -11 10 -25 15 l-25 10 0 194 0 195 28 15 c26 14 22 15 -63
15 -75 -1 -86 -3 -62 -12z"/>
<path d="M6408 2719 c-120 -13 -225 -74 -283 -162 -50 -76 -69 -154 -69 -272
2 -271 134 -419 374 -419 69 0 93 4 130 23 55 29 87 57 108 96 l16 30 7 -52
c11 -82 12 -85 66 -81 l48 3 3 165 c2 91 0 184 -3 208 -6 41 -7 42 -44 42 -67
0 -75 -14 -82 -137 -4 -83 -11 -118 -27 -150 -39 -76 -108 -113 -209 -113
-188 0 -261 127 -251 433 4 106 9 144 27 190 44 114 116 166 229 167 90 0 140
-27 209 -111 79 -98 110 -91 122 27 7 64 7 66 -18 76 -82 31 -252 49 -353 37z"/>
<path d="M9622 2719 c-133 -17 -238 -92 -299 -216 -35 -72 -38 -84 -41 -184
-6 -158 22 -243 112 -337 114 -121 333 -155 501 -79 202 93 285 378 175 603
-78 161 -243 239 -448 213z m139 -29 c69 -13 123 -49 160 -108 36 -56 46 -92
60 -200 21 -164 -17 -339 -89 -415 -107 -114 -336 -97 -415 31 -44 69 -59 130
-64 262 -10 255 58 392 214 429 53 12 72 13 134 1z"/>
<path d="M1202 2699 c2 -7 17 -16 32 -20 58 -16 56 -2 56 -379 0 -192 -3 -355
-6 -364 -3 -9 -24 -21 -45 -26 -76 -21 -41 -30 111 -30 83 0 150 4 150 9 0 5
-19 15 -42 23 l-43 13 -3 153 -3 152 59 0 59 0 112 -148 c161 -216 144 -202
246 -202 47 0 85 4 85 8 0 5 -14 15 -32 23 -21 9 -62 53 -114 120 -75 96 -88
108 -146 133 -34 16 -74 35 -88 44 -23 15 -23 16 -5 23 11 4 36 8 56 8 65 2
166 39 202 75 78 78 76 251 -4 322 -13 12 -51 32 -84 45 -56 21 -79 23 -309
27 -201 3 -248 2 -244 -9z m482 -45 c60 -31 81 -79 81 -184 -1 -163 -61 -210
-270 -210 l-85 0 0 211 0 211 118 -3 c94 -3 125 -8 156 -25z"/>
<path d="M2240 2695 c0 -11 12 -15 50 -15 28 0 50 -4 50 -8 0 -19 -249 -693
-264 -717 -10 -15 -36 -34 -57 -43 -21 -8 -39 -19 -39 -24 0 -4 50 -8 110 -8
65 0 110 4 110 10 0 5 -11 12 -24 16 -14 3 -33 15 -42 26 -18 19 -17 22 11
106 l30 87 189 0 190 0 27 -75 c39 -104 38 -126 -6 -144 -19 -8 -35 -17 -35
-20 0 -4 63 -6 140 -6 137 0 169 8 111 28 -16 6 -34 19 -39 29 -6 10 -69 180
-142 378 -81 220 -140 367 -152 378 -28 24 -218 26 -218 2z m212 -297 l86
-233 -170 -3 c-94 -1 -173 -1 -175 1 -5 5 161 467 167 467 3 0 44 -105 92
-232z"/>
<path d="M2870 2700 c0 -6 8 -13 18 -16 9 -3 29 -11 45 -16 l27 -11 -2 -366
-3 -366 -42 -13 c-24 -8 -43 -18 -43 -23 0 -5 47 -9 105 -9 58 0 105 4 105 9
0 5 -19 15 -42 23 l-43 13 -2 345 -2 345 147 -365 c146 -361 147 -365 177
-368 l30 -3 97 218 c52 120 122 278 154 352 l59 133 3 -338 c2 -305 4 -340 19
-351 19 -14 193 -18 193 -5 0 4 -19 14 -42 22 l-43 15 0 370 0 369 39 11 c22
6 42 17 44 23 5 17 -158 16 -181 0 -16 -12 -114 -228 -304 -668 l-15 -34 -137
344 c-113 285 -141 347 -161 357 -31 16 -200 18 -200 3z"/>
<path d="M3962 2699 c2 -7 17 -16 32 -20 58 -16 56 -1 56 -383 0 -193 -4 -356
-8 -362 -4 -6 -24 -17 -44 -23 -21 -7 -38 -17 -38 -22 0 -5 67 -9 155 -9 85 0
155 4 155 8 0 5 -21 15 -47 23 l-48 15 -3 168 -2 168 30 -30 c41 -42 91 -57
185 -56 92 0 150 21 203 75 57 56 67 84 67 184 0 80 -3 95 -27 136 -30 52 -80
89 -153 115 -66 23 -520 35 -513 13z m467 -49 c70 -39 96 -99 96 -220 0 -169
-49 -226 -186 -218 -73 4 -104 20 -143 72 -19 25 -21 44 -24 213 l-3 185 108
-4 c92 -3 115 -7 152 -28z"/>
<path d="M4752 2698 c3 -7 18 -16 35 -20 17 -4 36 -14 42 -22 8 -9 11 -115 9
-372 l-3 -359 -42 -13 c-24 -8 -43 -18 -43 -23 0 -5 67 -9 150 -9 83 0 150 4
150 9 0 5 -19 15 -42 23 l-43 13 -3 366 -2 366 27 11 c16 5 36 13 46 16 9 3
17 10 17 16 0 6 -54 10 -151 10 -113 0 -150 -3 -147 -12z"/>
<path d="M5140 2695 c0 -9 9 -15 23 -15 12 0 33 -7 45 -16 l22 -15 0 -349 c0
-191 -3 -355 -6 -364 -3 -9 -24 -21 -45 -26 -68 -19 -43 -30 66 -30 58 0 105
4 105 9 0 5 -19 15 -42 23 l-43 13 -3 349 -2 350 245 -360 c135 -197 253 -365
262 -371 9 -7 35 -13 57 -13 l41 0 0 381 c0 240 4 387 10 395 6 7 25 17 44 21
19 5 36 14 39 21 3 9 -25 12 -108 12 -84 0 -111 -3 -108 -12 3 -7 20 -16 38
-19 60 -13 60 -12 60 -361 0 -175 -3 -318 -7 -318 -5 1 -114 156 -243 346
-150 220 -243 349 -258 355 -13 5 -61 9 -108 9 -68 0 -84 -3 -84 -15z"/>
<path d="M7170 2696 c0 -13 11 -16 50 -16 28 0 50 -2 50 -4 0 -13 -242 -671
-260 -706 -16 -31 -32 -46 -61 -58 -21 -8 -39 -19 -39 -24 0 -4 50 -8 110 -8
113 0 137 10 75 30 -49 16 -53 43 -19 140 l27 80 188 0 c169 0 188 -2 194 -17
34 -88 56 -158 53 -176 -2 -14 -14 -24 -35 -31 -64 -18 -31 -26 107 -26 137 0
169 8 111 28 -16 6 -35 21 -42 34 -7 13 -72 185 -145 382 -73 198 -138 364
-144 370 -6 6 -58 13 -115 14 -91 3 -105 2 -105 -12z m212 -306 l84 -225 -169
-3 c-94 -1 -172 0 -175 2 -2 3 33 109 79 235 46 127 86 228 90 223 4 -4 45
-108 91 -232z"/>
<path d="M7800 2691 c0 -13 10 -20 32 -25 60 -12 58 2 58 -371 0 -189 -3 -350
-6 -359 -3 -9 -24 -21 -45 -26 -89 -24 -33 -30 285 -30 l323 0 7 70 c12 119
-12 204 -50 182 -8 -4 -34 -46 -57 -92 -57 -114 -86 -130 -234 -130 l-103 0 0
364 c0 396 -2 380 58 392 22 5 32 12 32 25 0 18 -10 19 -150 19 -140 0 -150
-1 -150 -19z"/>
<path d="M8542 2693 c2 -9 20 -21 43 -27 l40 -12 0 -364 0 -365 -42 -13 c-24
-8 -43 -18 -43 -23 0 -5 138 -9 325 -9 l324 0 7 35 c11 63 1 193 -18 211 -23
24 -39 9 -78 -74 -58 -123 -90 -142 -245 -142 l-105 0 0 358 c0 271 3 362 13
374 6 9 28 21 47 26 20 5 36 15 38 25 3 15 -12 17 -153 17 -140 0 -156 -2
-153 -17z"/>
</g>
</svg>
